# xmcd
#
# Track frame offsets: 
#        150
#        12357
#        21150
#        33635
#        44605
#        55920
#        68042
#        84440
#        94580
#        104350
#        115057
#        125752
#        139132
#        150885
#        162060
#        179397
#
# Disc length: 2529 seconds
#
# Revision: 0
# Processed by: cddbd v1.5.2PL0 Copyright (c) Steve Scherf et al.
# Submitted via: ExactAudioCopy v0.99pb4
#
DISCID=cc09df10
DTITLE=John Lee Hooker - I'm In The Mood
DYEAR=1900
DGENRE=Blues
TTITLE0=I'm In The Mood
TTITLE1=Hobo Blues
TTITLE2=Crawling King Snake
TTITLE3=No Shoes
TTITLE4=Boom Boom
TTITLE5=Whiskey and Wimmen
TTITLE6=Process
TTITLE7=Dimples
TTITLE8=Onions
TTITLE9=Let's Make It
TTITLE10=Want Ad Blues
TTITLE11=Baby Lee
TTITLE12=Little Wheel
TTITLE13=Blues Before Sunrise
TTITLE14=Old Time Shimmy
TTITLE15=Unknown Bounus
EXTD=
EXTT0=
EXTT1=
EXTT2=
EXTT3=
EXTT4=
EXTT5=
EXTT6=
EXTT7=
EXTT8=
EXTT9=
EXTT10=
EXTT11=
EXTT12=
EXTT13=
EXTT14=
EXTT15=
PLAYORDER=
